<?xml version="1.0" encoding="UTF-8" standalone="no"?>
<!-- Created with Inkscape (http://www.inkscape.org/) -->

<svg
   xmlns:dc="http://purl.org/dc/elements/1.1/"
   xmlns:cc="http://creativecommons.org/ns#"
   xmlns:rdf="http://www.w3.org/1999/02/22-rdf-syntax-ns#"
   xmlns:svg="http://www.w3.org/2000/svg"
   xmlns="http://www.w3.org/2000/svg"
   xmlns:sodipodi="http://sodipodi.sourceforge.net/DTD/sodipodi-0.dtd"
   xmlns:inkscape="http://www.inkscape.org/namespaces/inkscape"
   id="svg3004"
   version="1.1"
   inkscape:version="0.48.5 r10040"
   width="96"
   height="96"
   xml:space="preserve"
   sodipodi:docname="vector-logo.svg"><metadata
     id="metadata3010"><rdf:RDF><cc:Work
         rdf:about=""><dc:format>image/svg+xml</dc:format><dc:type
           rdf:resource="http://purl.org/dc/dcmitype/StillImage" /><dc:title></dc:title></cc:Work></rdf:RDF></metadata><defs
     id="defs3008"><clipPath
       clipPathUnits="userSpaceOnUse"
       id="clipPath3018"><path
         d="m 0,211.687 190.137,0 L 190.137,0 0,0 0,211.687 z"
         id="path3020"
         inkscape:connector-curvature="0" /></clipPath></defs><sodipodi:namedview
     pagecolor="#ffffff"
     bordercolor="#666666"
     borderopacity="1"
     objecttolerance="10"
     gridtolerance="10"
     guidetolerance="10"
     inkscape:pageopacity="0"
     inkscape:pageshadow="2"
     inkscape:window-width="1202"
     inkscape:window-height="897"
     id="namedview3006"
     showgrid="false"
     inkscape:zoom="2.9175148"
     inkscape:cx="46.168113"
     inkscape:cy="8.7396978"
     inkscape:window-x="0"
     inkscape:window-y="0"
     inkscape:window-maximized="0"
     inkscape:current-layer="g3012"
     fit-margin-top="0"
     fit-margin-left="0"
     fit-margin-right="0"
     fit-margin-bottom="0" /><g
     id="g3012"
     inkscape:groupmode="layer"
     inkscape:label="MAC-Logo (1)"
     transform="matrix(1.25,0,0,-1.25,-77.85272,177.34798)"><g
       id="g3014"
       transform="translate(6.7103999,3.1188035)"><g
         id="g3016"
         clip-path="url(#clipPath3018)"
         transform="translate(-1.0968239,-5.4841195)"><g
           id="g3022"
           transform="translate(86.4823,120.2827)"><path
             d="m 0,0 c -0.217,1.587 -1.693,3.063 -3.281,3.28 l -2.885,0.394 0.394,-2.885 c 0.217,-1.587 1.694,-3.064 3.28,-3.281 L 0.395,-2.886 0,0 z"
             style="fill:#a6b3ab;fill-opacity:1;fill-rule:nonzero;stroke:none"
             id="path3024"
             inkscape:connector-curvature="0" /></g><g
           id="g3026"
           transform="translate(103.5974,120.2827)"><path
             d="M 0,0 C 0.217,1.587 1.693,3.063 3.281,3.28 L 6.166,3.674 5.772,0.789 C 5.555,-0.798 4.078,-2.275 2.492,-2.492 L -0.395,-2.886 0,0 z"
             style="fill:#a6b3ab;fill-opacity:1;fill-rule:nonzero;stroke:none"
             id="path3028"
             inkscape:connector-curvature="0" /></g><g
           id="g3030"
           transform="translate(86.4823,98.1851)"><path
             d="m 0,0 c -0.217,-1.587 -1.693,-3.063 -3.281,-3.28 l -2.885,-0.394 0.394,2.885 c 0.217,1.587 1.694,3.064 3.28,3.281 L 0.395,2.886 0,0 z"
             style="fill:#a6b3ab;fill-opacity:1;fill-rule:nonzero;stroke:none"
             id="path3032"
             inkscape:connector-curvature="0" /></g><g
           id="g3034"
           transform="translate(103.5974,98.1851)"><path
             d="M 0,0 C 0.217,-1.587 1.693,-3.063 3.281,-3.28 L 6.166,-3.674 5.772,-0.789 C 5.555,0.798 4.078,2.275 2.492,2.492 L -0.395,2.886 0,0 z"
             style="fill:#a6b3ab;fill-opacity:1;fill-rule:nonzero;stroke:none"
             id="path3036"
             inkscape:connector-curvature="0" /></g><g
           id="g3038"
           transform="translate(126.1642,114.5741)"><path
             d="m 0,0 -25.956,0 0,12.494 c -1.032,0.378 -2.14,0.594 -3.302,0.594 l 0,-13.088 0,-3.301 0,-10e-4 29.852,0 C 0.594,-2.14 0.377,-1.031 0,0"
             style="fill:#c75b3d;fill-opacity:1;fill-rule:nonzero;stroke:none"
             id="path3040"
             inkscape:connector-curvature="0" /></g><g
           id="g3042"
           transform="translate(96.9083,107.5195)"><path
             d="m 0,0 0,-17.714 0,-19.243 c 1.162,0 2.271,0.216 3.302,0.594 l 0,18.055 0,15.006 12.508,0 c 0.377,1.031 0.593,2.14 0.593,3.302 L 0,0 z"
             style="fill:#c75b3d;fill-opacity:1;fill-rule:nonzero;stroke:none"
             id="path3044"
             inkscape:connector-curvature="0" /></g><g
           id="g3046"
           transform="translate(89.9293,140.5309)"><path
             d="m 0,0 0,-25.956 -12.494,0 c -0.378,-1.032 -0.594,-2.14 -0.594,-3.302 l 16.39,0 0,0 0,29.852 0,0 C 2.14,0.594 1.031,0.377 0,0"
             style="fill:#c75b3d;fill-opacity:1;fill-rule:nonzero;stroke:none"
             id="path3048"
             inkscape:connector-curvature="0" /></g><g
           id="g3050"
           transform="translate(63.379,107.5195)"><path
             d="m 0,0 c 0,-1.162 0.216,-2.271 0.594,-3.302 l 25.956,0 0,-12.494 c 1.031,-0.377 2.14,-0.594 3.302,-0.594 l 0,0 0,16.39 0,0 L 0,0 z"
             style="fill:#c75b3d;fill-opacity:1;fill-rule:nonzero;stroke:none"
             id="path3052"
             inkscape:connector-curvature="0" /></g></g></g></g></svg>